inDegrees=yes
name=ik_S57_A06_T01
DataType=double
version=3
OpenSimVersion=4.3-2021-08-27-4bc7ad9
endheader
time	pelvis_tilt	pelvis_list	pelvis_rotation	pelvis_tx	pelvis_ty	pelvis_tz	hip_flexion_r	hip_adduction_r	hip_rotation_r	knee_angle_r	knee_angle_r_beta	ankle_angle_r	subtalar_angle_r	mtp_angle_r	hip_flexion_l	hip_adduction_l	hip_rotation_l	knee_angle_l	knee_angle_l_beta	ankle_angle_l	subtalar_angle_l	mtp_angle_l	lumbar_extension	lumbar_bending	lumbar_rotation	arm_flex_r	arm_add_r	arm_rot_r	elbow_flex_r	pro_sup_r	wrist_flex_r	wrist_dev_r	arm_flex_l	arm_add_l	arm_rot_l	elbow_flex_l	pro_sup_l	wrist_flex_l	wrist_dev_l
21.45999999999963	-6.432815939970459	-4.966865173488678	7.84256261227562	0	0.9399999999999999	0	33.25198996639745	-9.725339932566818	-9.15525165559867	37.82041854685299	0.660090828124914	0	0	0	33.25198996639745	-9.725339932566818	-9.15525165559867	37.82041854685299	0.660090828124914	0	0	0	-6.926077847765967	-4.610562754288276	-8.314300241750058	23.96130544878811	13.76802842137419	5.476270458063799	43.7890159438081	131.7291397633008	0	0	-2.19538167265702	-19.30402091854655	-5.845522370649127	71.16265448636693	143.1919589850679	0	0
21.47999999999963	-6.413360781041254	-4.983565197374751	7.768035444818883	0	0.9399999999999999	0	33.25844563957126	-9.725853230336755	-9.156265372497197	37.82705523004199	0.6602066600979738	0	0	0	33.25844563957126	-9.725853230336755	-9.156265372497197	37.82705523004199	0.6602066600979738	0	0	0	-6.899095708256532	-4.644371675625586	-8.208691503142614	23.9255319667238	13.79044403774365	5.44572152276128	43.8015864996781	131.7685585850296	0	0	-2.329093336021817	-18.55318481901712	-5.020748633101292	68.84319910849713	141.8153559598811	0	0
21.49999999999963	-6.355562684913961	-4.981749084125171	7.724900328414723	0	0.9399999999999999	0	33.26327435617112	-9.726236343080238	-9.15702268118279	37.83202503812899	0.6602933996122842	0	0	0	33.26327435617112	-9.726236343080238	-9.15702268118279	37.83202503812899	0.6602933996122842	0	0	0	-6.837552183217079	-4.655885333209255	-8.167887071867945	23.80375880934277	13.77587025823312	5.648302892904391	43.82682548933506	131.6146546998987	0	0	-2.432746884905355	-17.72561633822058	-4.434208820475583	67.94237370590984	141.1670883565796	0	0
21.51999999999963	-6.317223851652112	-5.005653837168219	7.605743791697504	0	0.9399999999999999	0	33.26964277877129	-9.726741195641162	-9.158021133537664	37.83857799252619	0.6604077702422484	0	0	0	33.26964277877129	-9.726741195641162	-9.158021133537664	37.83857799252619	0.6604077702422484	0	0	0	-6.803852688403727	-4.685247026345524	-8.161992631206189	23.87773127913952	13.84888851606233	5.683368037402852	43.67385050358396	131.6436432778861	0	0	-2.388779407375812	-16.85278711880533	-3.890375095554657	65.90122713202261	138.4055527160314	0	0
21.53999999999963	-6.319984103423064	-5.036941676888244	7.480882731829035	0	0.9399999999999999	0	33.27607008529748	-9.727250420375967	-9.15902864765776	37.84518837875954	0.6605231432468488	0	0	0	33.27607008529748	-9.727250420375967	-9.15902864765776	37.84518837875954	0.6605231432468488	0	0	0	-6.818785101977897	-4.707731377331187	-8.220149715616133	23.93538227667606	13.92939161069653	5.774607014215957	43.61453385025851	131.6293483814424	0	0	-2.194144069516076	-15.89423428593196	-3.627173602434765	64.246040883985	136.0090229402102	0	0
21.55999999999963	-6.280908281407919	-5.031418769838222	7.314352034148897	0	0.9399999999999999	0	33.28306201623134	-9.727804426816904	-9.160124981787762	37.8523709819038	0.6606485033205802	0	0	0	33.28306201623134	-9.727804426816904	-9.160124981787762	37.8523709819038	0.6606485033205802	0	0	0	-6.788410187400086	-4.696803409098538	-8.299389438900453	23.87149555116034	13.94025646018559	5.982537626774957	43.56079690093679	131.7090727748665	0	0	-1.811151383283379	-14.40907330925768	-3.468725456676634	62.61169600429456	134.7807896683091	0	0
21.57999999999963	-6.282508812476371	-5.027698500594945	7.263784909818193	0	0.9399999999999999	0	33.2889378764398	-9.728268988241997	-9.161045227811671	37.85841224151969	0.6607539431918453	0	0	0	33.2889378764398	-9.728268988241997	-9.161045227811671	37.85841224151969	0.6607539431918453	0	0	0	-6.785629398825597	-4.69918759417669	-8.246839464765172	23.89959210822069	13.88617998646875	6.003755149880877	43.51927133365341	131.706287501088	0	0	-1.47252606725527	-13.93817184545861	-3.046280472852926	61.79509840210253	134.4281226488399	0	0
21.59999999999963	-6.253558865132749	-5.040887213925192	7.210095301802297	0	0.9399999999999999	0	33.29203761282893	-9.728508223892218	-9.16152322882003	37.86166652866818	0.6608107412173918	0	0	0	33.29203761282893	-9.728508223892218	-9.16152322882003	37.86166652866818	0.6608107412173918	0	0	0	-6.758228827345434	-4.71611147546084	-8.246684484944263	23.83741872226901	13.89987272027892	6.090480255082121	43.4614002988011	131.6549822027213	0	0	-1.569876064692479	-13.92755106781603	-3.017924484718837	61.17199624885409	134.2237274183294	0	0
21.61999999999963	-6.275770089107678	-5.041522422638829	7.04473682239627	0	0.9399999999999999	0	33.29899855586876	-9.729058853906199	-9.162614094816893	37.86880991225551	0.6609354167807235	0	0	0	33.29899855586876	-9.729058853906199	-9.162614094816893	37.86880991225551	0.6609354167807235	0	0	0	-6.764903655189875	-4.735733816482265	-8.070548886381552	23.90191444078661	13.85625014358785	6.127368397932391	43.44455365369019	131.6215314845159	0	0	-0.5224336810056455	-13.4314317847544	-1.661543946700823	59.52401890923292	133.464552446243	0	0
21.63999999999963	-6.267372497231511	-5.049438844655229	6.999584932549507	0	0.9399999999999999	0	33.30506757714743	-9.729537139941732	-9.163563101825684	37.87505213331604	0.6610443640908672	0	0	0	33.30506757714743	-9.729537139941732	-9.163563101825684	37.87505213331604	0.6610443640908672	0	0	0	-6.749698294493738	-4.755580755772129	-7.982627969540498	23.87817933588632	13.82696848298382	6.147638031681802	43.41678048560713	131.626817716402	0	0	0.03790501758690557	-13.42731580479946	-1.078399866029929	59.0129063819825	132.7306456366389	0	0
21.65999999999963	-6.274410900678392	-5.040922927267917	7.0196767602454	0	0.9399999999999999	0	33.30802044914058	-9.729768883024272	-9.1640236679017	37.87809837406384	0.6610975310217246	0	0	0	33.30802044914058	-9.729768883024272	-9.1640236679017	37.87809837406384	0.6610975310217246	0	0	0	-6.759193704667188	-4.741371292792755	-8.017413915889405	23.89336976417735	13.78248653363063	6.302396288977065	43.42316664575043	131.6354760890626	0	0	0.03524625413037673	-13.39153165392117	-1.101508182812318	59.142688509774	132.2609249558397	0	0
21.67999999999963	-6.296222166783326	-5.057412384893932	7.025978336057833	0	0.9399999999999999	0	33.31302489754568	-9.730157362909486	-9.164798774693546	37.88330971423574	0.6611884860661659	0	0	0	33.31302489754568	-9.730157362909486	-9.164798774693546	37.88330971423574	0.6611884860661659	0	0	0	-6.78654073373713	-4.749889569165302	-8.051947326102059	23.91932771421386	13.79816112434425	6.525981673323462	43.46145556974906	131.5319950190957	0	0	0.5683046792077348	-13.57390216382127	-0.7943208489457643	58.59137601695186	131.1506187056617	0	0
